
=== 2026-05-11T06:57:50.232Z starting transcode -hide_banner -y -nostats -progress pipe:1 -i /home/awanservers/awanstream/public/uploads/1778482656035_Fireplace.mp4 -map 0:v:0 -map 0:a:0? -vf scale=1920:1080:force_original_aspect_ratio=decrease,pad=1920:1080:(ow-iw)/2:(oh-ih)/2,fps=30 -c:v libx264 -preset medium -profile:v high -pix_fmt yuv420p -b:v 4500k -maxrate 4500k -bufsize 9000k -g 60 -keyint_min 60 -sc_threshold 0 -c:a aac -b:a 128k -ar 44100 -ac 2 -movflags +faststart /home/awanservers/awanstream/public/uploads/1778482656035_Fireplace__1080p30_ready.mp4
=== source duration: 64.017007s
[mov,mp4,m4a,3gp,3g2,mj2 @ 0x5836382c66c0] Unknown cover type: 0x1.
Input #0, mov,mp4,m4a,3gp,3g2,mj2, from '/home/awanservers/awanstream/public/uploads/1778482656035_Fireplace.mp4':
  Metadata:
    major_brand     : isom
    minor_version   : 512
    compatible_brands: isomiso2avc1mp41
    creation_time   : 2026-02-27T13:05:00.000000Z
    Hw              : 1
    bitrate         : 12000000
    maxrate         : 0
    te_is_reencode  : 1
    encoder         : Lavf61.1.100
  Duration: 00:01:04.02, start: 0.000000, bitrate: 10358 kb/s
  Stream #0:0[0x1](und): Video: h264 (High) (avc1 / 0x31637661), yuv420p(tv, bt709, progressive), 1920x1080 [SAR 1:1 DAR 16:9], 10150 kb/s, 30 fps, 30 tbr, 30 tbn (default)
    Metadata:
      creation_time   : 2026-02-27T13:05:00.000000Z
      handler_name    : VideoHandler
      vendor_id       : [0][0][0][0]
  Stream #0:1[0x2](und): Audio: aac (LC) (mp4a / 0x6134706D), 44100 Hz, stereo, fltp, 206 kb/s (default)
    Metadata:
      creation_time   : 2026-02-27T13:05:00.000000Z
      handler_name    : SoundHandler
      vendor_id       : [0][0][0][0]
Stream mapping:
  Stream #0:0 -> #0:0 (h264 (native) -> h264 (libx264))
  Stream #0:1 -> #0:1 (aac (native) -> aac (native))
Press [q] to stop, [?] for help
[libx264 @ 0x5836382cdf00] using SAR=1/1
[libx264 @ 0x5836382cdf00] using cpu capabilities: MMX2 SSE2Fast SSSE3 SSE4.2 AVX FMA3 BMI2 AVX2 AVX512
[libx264 @ 0x5836382cdf00] profile High, level 4.0, 4:2:0, 8-bit
[libx264 @ 0x5836382cdf00] 264 - core 164 r3108 31e19f9 - H.264/MPEG-4 AVC codec - Copyleft 2003-2023 - http://www.videolan.org/x264.html - options: cabac=1 ref=3 deblock=1:0:0 analyse=0x3:0x113 me=hex subme=7 psy=1 psy_rd=1.00:0.00 mixed_ref=1 me_range=16 chroma_me=1 trellis=1 8x8dct=1 cqm=0 deadzone=21,11 fast_pskip=1 chroma_qp_offset=-2 threads=6 lookahead_threads=1 sliced_threads=0 nr=0 decimate=1 interlaced=0 bluray_compat=0 constrained_intra=0 bframes=3 b_pyramid=2 b_adapt=1 b_bias=0 direct=1 weightb=1 open_gop=0 weightp=2 keyint=60 keyint_min=31 scenecut=0 intra_refresh=0 rc_lookahead=40 rc=cbr mbtree=1 bitrate=4500 ratetol=1.0 qcomp=0.60 qpmin=0 qpmax=69 qpstep=4 vbv_maxrate=4500 vbv_bufsize=9000 nal_hrd=none filler=0 ip_ratio=1.40 aq=1:1.00
Output #0, mp4, to '/home/awanservers/awanstream/public/uploads/1778482656035_Fireplace__1080p30_ready.mp4':
  Metadata:
    major_brand     : isom
    minor_version   : 512
    compatible_brands: isomiso2avc1mp41
    te_is_reencode  : 1
    Hw              : 1
    bitrate         : 12000000
    maxrate         : 0
    encoder         : Lavf60.16.100
  Stream #0:0(und): Video: h264 (avc1 / 0x31637661), yuv420p(tv, bt709, progressive), 1920x1080 [SAR 1:1 DAR 16:9], q=2-31, 4500 kb/s, 30 fps, 15360 tbn (default)
    Metadata:
      creation_time   : 2026-02-27T13:05:00.000000Z
      handler_name    : VideoHandler
      vendor_id       : [0][0][0][0]
      encoder         : Lavc60.31.102 libx264
    Side data:
      cpb: bitrate max/min/avg: 4500000/0/4500000 buffer size: 9000000 vbv_delay: N/A
  Stream #0:1(und): Audio: aac (LC) (mp4a / 0x6134706D), 44100 Hz, stereo, fltp, 128 kb/s (default)
    Metadata:
      creation_time   : 2026-02-27T13:05:00.000000Z
      handler_name    : SoundHandler
      vendor_id       : [0][0][0][0]
      encoder         : Lavc60.31.102 aac
[mp4 @ 0x583638304800] Starting second pass: moving the moov atom to the beginning of the file
[out#0/mp4 @ 0x5836382cbc80] video:35489kB audio:1094kB subtitle:0kB other streams:0kB global headers:0kB muxing overhead: 0.187414%
frame= 1920 fps= 20 q=-1.0 Lsize=   36652kB time=00:01:03.99 bitrate=4691.9kbits/s speed=0.665x    
[libx264 @ 0x5836382cdf00] frame I:32    Avg QP:19.03  size:164694
[libx264 @ 0x5836382cdf00] frame P:687   Avg QP:23.08  size: 26574
[libx264 @ 0x5836382cdf00] frame B:1201  Avg QP:26.94  size: 10669
[libx264 @ 0x5836382cdf00] consecutive B-frames: 12.7%  9.5%  7.0% 70.8%
[libx264 @ 0x5836382cdf00] mb I  I16..4: 11.4% 73.7% 14.8%
[libx264 @ 0x5836382cdf00] mb P  I16..4:  2.8% 12.3%  0.5%  P16..4: 31.5%  8.2%  4.8%  0.0%  0.0%    skip:39.9%
[libx264 @ 0x5836382cdf00] mb B  I16..4:  1.3%  5.6%  0.2%  B16..8: 17.7%  2.9%  0.5%  direct: 1.5%  skip:70.4%  L0:52.2% L1:45.0% BI: 2.8%
[libx264 @ 0x5836382cdf00] 8x8 transform intra:77.9% inter:84.1%
[libx264 @ 0x5836382cdf00] coded y,uvDC,uvAC intra: 51.6% 81.4% 41.6% inter: 11.0% 14.7% 0.3%
[libx264 @ 0x5836382cdf00] i16 v,h,dc,p: 40% 22% 17% 20%
[libx264 @ 0x5836382cdf00] i8 v,h,dc,ddl,ddr,vr,hd,vl,hu: 33% 13% 17%  3%  6% 10%  4%  8%  5%
[libx264 @ 0x5836382cdf00] i4 v,h,dc,ddl,ddr,vr,hd,vl,hu: 28% 16%  8%  5% 11% 12%  7%  7%  5%
[libx264 @ 0x5836382cdf00] i8c dc,h,v,p: 38% 16% 32% 13%
[libx264 @ 0x5836382cdf00] Weighted P-Frames: Y:4.5% UV:2.3%
[libx264 @ 0x5836382cdf00] ref P L0: 52.9% 19.3% 16.0% 10.9%  0.9%
[libx264 @ 0x5836382cdf00] ref B L0: 76.5% 16.8%  6.7%
[libx264 @ 0x5836382cdf00] ref B L1: 95.4%  4.6%
[libx264 @ 0x5836382cdf00] kb/s:4542.53
[aac @ 0x58363832fc00] Qavg: 612.930

=== 2026-05-11T06:59:26.638Z transcode exit code=0 signal=null
